<svg xmlns="http://www.w3.org/2000/svg" xmlns:xlink="http://www.w3.org/1999/xlink" width="194" zoomAndPan="magnify" viewBox="0 0 145.5 36.000001" height="48" preserveAspectRatio="xMidYMid meet" version="1.0"><defs><g/><clipPath id="9434e7e39e"><path d="M 1.722656 0 L 143.289062 0 L 143.289062 35.027344 L 1.722656 35.027344 Z M 1.722656 0 " clip-rule="nonzero"/></clipPath><clipPath id="6710e6df04"><path d="M 9 5.363281 L 34 5.363281 L 34 29.441406 L 9 29.441406 Z M 9 5.363281 " clip-rule="nonzero"/></clipPath></defs><g clip-path="url(#9434e7e39e)"><path fill="#ffffff" d="M 1.722656 0 L 143.289062 0 L 143.289062 35.027344 L 1.722656 35.027344 Z M 1.722656 0 " fill-opacity="1" fill-rule="nonzero"/><path fill="#fdf6f0" d="M 1.722656 0 L 143.289062 0 L 143.289062 35.027344 L 1.722656 35.027344 Z M 1.722656 0 " fill-opacity="1" fill-rule="nonzero"/></g><g fill="#7f2549" fill-opacity="1"><g transform="translate(41.713243, 22.75263)"><g><path d="M 5.03125 -8 C 5.4375 -8 5.820312 -8.039062 6.1875 -8.125 C 6.5625 -8.21875 6.890625 -8.367188 7.171875 -8.578125 C 7.453125 -8.785156 7.671875 -9.046875 7.828125 -9.359375 C 7.992188 -9.679688 8.078125 -10.070312 8.078125 -10.53125 C 8.078125 -11.382812 7.851562 -12 7.40625 -12.375 C 6.96875 -12.75 6.335938 -12.9375 5.515625 -12.9375 L 3.796875 -12.9375 L 3.796875 -8 Z M 8.78125 0 L 7.890625 -3.25 C 7.765625 -3.695312 7.644531 -4.109375 7.53125 -4.484375 C 7.414062 -4.859375 7.257812 -5.179688 7.0625 -5.453125 C 6.875 -5.722656 6.617188 -5.929688 6.296875 -6.078125 C 5.984375 -6.222656 5.550781 -6.296875 5 -6.296875 L 3.796875 -6.296875 L 3.796875 0 L 1.671875 0 L 1.671875 -14.625 L 5.921875 -14.625 C 6.535156 -14.625 7.101562 -14.550781 7.625 -14.40625 C 8.15625 -14.257812 8.609375 -14.03125 8.984375 -13.71875 C 9.367188 -13.40625 9.664062 -13.007812 9.875 -12.53125 C 10.09375 -12.050781 10.203125 -11.472656 10.203125 -10.796875 C 10.203125 -9.804688 9.953125 -9.035156 9.453125 -8.484375 C 8.960938 -7.941406 8.25 -7.5625 7.3125 -7.34375 L 7.3125 -7.296875 C 7.78125 -7.191406 8.160156 -7.046875 8.453125 -6.859375 C 8.742188 -6.671875 8.976562 -6.4375 9.15625 -6.15625 C 9.332031 -5.882812 9.46875 -5.570312 9.5625 -5.21875 C 9.664062 -4.875 9.757812 -4.492188 9.84375 -4.078125 L 10.703125 0 Z M 8.78125 0 "/></g></g></g><g fill="#7f2549" fill-opacity="1"><g transform="translate(53.101422, 22.75263)"><g><path d="M 6.421875 -4.515625 L 6.046875 -4.515625 C 5.742188 -4.515625 5.414062 -4.476562 5.0625 -4.40625 C 4.707031 -4.332031 4.378906 -4.21875 4.078125 -4.0625 C 3.785156 -3.914062 3.535156 -3.710938 3.328125 -3.453125 C 3.128906 -3.203125 3.03125 -2.898438 3.03125 -2.546875 C 3.03125 -2.234375 3.125 -1.9375 3.3125 -1.65625 C 3.507812 -1.382812 3.785156 -1.25 4.140625 -1.25 C 4.460938 -1.25 4.765625 -1.332031 5.046875 -1.5 C 5.328125 -1.675781 5.566406 -1.894531 5.765625 -2.15625 C 5.972656 -2.414062 6.132812 -2.703125 6.25 -3.015625 C 6.363281 -3.335938 6.421875 -3.644531 6.421875 -3.9375 Z M 6.421875 0 L 6.421875 -1.25 L 6.375 -1.25 C 6.15625 -0.769531 5.796875 -0.398438 5.296875 -0.140625 C 4.804688 0.109375 4.300781 0.234375 3.78125 0.234375 C 2.925781 0.234375 2.234375 0 1.703125 -0.46875 C 1.171875 -0.9375 0.90625 -1.609375 0.90625 -2.484375 C 0.90625 -3.191406 1.085938 -3.765625 1.453125 -4.203125 C 1.828125 -4.640625 2.289062 -4.972656 2.84375 -5.203125 C 3.394531 -5.441406 3.988281 -5.597656 4.625 -5.671875 C 5.269531 -5.742188 5.867188 -5.78125 6.421875 -5.78125 L 6.421875 -7.34375 C 6.421875 -7.863281 6.269531 -8.242188 5.96875 -8.484375 C 5.664062 -8.722656 5.300781 -8.84375 4.875 -8.84375 C 4.382812 -8.84375 3.992188 -8.707031 3.703125 -8.4375 C 3.410156 -8.164062 3.265625 -7.785156 3.265625 -7.296875 L 1.25 -7.296875 C 1.25 -7.859375 1.347656 -8.328125 1.546875 -8.703125 C 1.753906 -9.085938 2.03125 -9.398438 2.375 -9.640625 C 2.726562 -9.890625 3.128906 -10.066406 3.578125 -10.171875 C 4.035156 -10.273438 4.519531 -10.328125 5.03125 -10.328125 C 7.226562 -10.328125 8.328125 -9.242188 8.328125 -7.078125 L 8.328125 0 Z M 6.421875 0 "/></g></g></g><g fill="#7f2549" fill-opacity="1"><g transform="translate(62.920281, 22.75263)"><g><path d="M 1.5625 0 L 1.5625 -10.09375 L 3.484375 -10.09375 L 3.484375 -8.0625 L 3.515625 -8.0625 C 3.753906 -8.78125 4.140625 -9.335938 4.671875 -9.734375 C 5.210938 -10.128906 5.867188 -10.328125 6.640625 -10.328125 L 6.640625 -8.25 C 6.023438 -8.25 5.515625 -8.144531 5.109375 -7.9375 C 4.710938 -7.738281 4.390625 -7.457031 4.140625 -7.09375 C 3.898438 -6.726562 3.726562 -6.304688 3.625 -5.828125 C 3.53125 -5.347656 3.484375 -4.832031 3.484375 -4.28125 L 3.484375 0 Z M 1.5625 0 "/></g></g></g><g fill="#7f2549" fill-opacity="1"><g transform="translate(69.982224, 22.75263)"><g><path d="M 6.703125 -7.0625 C 6.703125 -7.59375 6.523438 -8.019531 6.171875 -8.34375 C 5.828125 -8.675781 5.390625 -8.84375 4.859375 -8.84375 C 4.441406 -8.84375 4.066406 -8.742188 3.734375 -8.546875 C 3.410156 -8.347656 3.160156 -8.054688 2.984375 -7.671875 C 2.890625 -7.453125 2.84375 -7.25 2.84375 -7.0625 Z M 8.375 -0.109375 C 7.945312 -0.00390625 7.53125 0.078125 7.125 0.140625 C 6.71875 0.203125 6.296875 0.234375 5.859375 0.234375 C 4.953125 0.234375 4.179688 0.0859375 3.546875 -0.203125 C 2.921875 -0.492188 2.40625 -0.894531 2 -1.40625 C 1.601562 -1.925781 1.3125 -2.535156 1.125 -3.234375 C 0.9375 -3.929688 0.84375 -4.695312 0.84375 -5.53125 C 0.84375 -6.226562 0.921875 -6.867188 1.078125 -7.453125 C 1.234375 -8.035156 1.476562 -8.539062 1.8125 -8.96875 C 2.144531 -9.394531 2.570312 -9.726562 3.09375 -9.96875 C 3.613281 -10.207031 4.238281 -10.328125 4.96875 -10.328125 C 5.570312 -10.328125 6.101562 -10.222656 6.5625 -10.015625 C 7.019531 -9.816406 7.398438 -9.535156 7.703125 -9.171875 C 8.003906 -8.804688 8.226562 -8.375 8.375 -7.875 C 8.53125 -7.382812 8.609375 -6.851562 8.609375 -6.28125 L 8.609375 -5.78125 L 2.75 -5.78125 C 2.75 -5.21875 2.820312 -4.664062 2.96875 -4.125 C 3.125 -3.582031 3.351562 -3.097656 3.65625 -2.671875 C 3.957031 -2.242188 4.34375 -1.898438 4.8125 -1.640625 C 5.28125 -1.378906 5.832031 -1.25 6.46875 -1.25 C 6.800781 -1.25 7.125 -1.28125 7.4375 -1.34375 C 7.75 -1.40625 8.0625 -1.492188 8.375 -1.609375 Z M 8.375 -0.109375 "/></g></g></g><g fill="#7f2549" fill-opacity="1"><g transform="translate(79.398137, 22.75263)"><g><path d="M 5.171875 -1.25 C 5.640625 -1.25 6.007812 -1.378906 6.28125 -1.640625 C 6.5625 -1.898438 6.769531 -2.222656 6.90625 -2.609375 C 7.050781 -2.992188 7.144531 -3.40625 7.1875 -3.84375 C 7.226562 -4.28125 7.25 -4.664062 7.25 -5 C 7.25 -5.300781 7.226562 -5.671875 7.1875 -6.109375 C 7.15625 -6.546875 7.078125 -6.960938 6.953125 -7.359375 C 6.828125 -7.765625 6.644531 -8.113281 6.40625 -8.40625 C 6.164062 -8.695312 5.832031 -8.84375 5.40625 -8.84375 C 5 -8.84375 4.660156 -8.703125 4.390625 -8.421875 C 4.117188 -8.148438 3.898438 -7.816406 3.734375 -7.421875 C 3.566406 -7.023438 3.445312 -6.609375 3.375 -6.171875 C 3.300781 -5.742188 3.265625 -5.375 3.265625 -5.0625 C 3.265625 -4.726562 3.269531 -4.335938 3.28125 -3.890625 C 3.300781 -3.441406 3.367188 -3.023438 3.484375 -2.640625 C 3.609375 -2.253906 3.796875 -1.925781 4.046875 -1.65625 C 4.304688 -1.382812 4.679688 -1.25 5.171875 -1.25 Z M 1.359375 -14.625 L 3.265625 -14.625 L 3.265625 -8.71875 L 3.3125 -8.71875 C 3.550781 -9.238281 3.90625 -9.632812 4.375 -9.90625 C 4.851562 -10.1875 5.375 -10.328125 5.9375 -10.328125 C 6.675781 -10.328125 7.269531 -10.148438 7.71875 -9.796875 C 8.164062 -9.453125 8.507812 -9.015625 8.75 -8.484375 C 9 -7.960938 9.164062 -7.382812 9.25 -6.75 C 9.332031 -6.125 9.375 -5.519531 9.375 -4.9375 C 9.375 -4.226562 9.304688 -3.5625 9.171875 -2.9375 C 9.035156 -2.320312 8.8125 -1.773438 8.5 -1.296875 C 8.1875 -0.828125 7.765625 -0.453125 7.234375 -0.171875 C 6.710938 0.0976562 6.0625 0.234375 5.28125 0.234375 C 4.5625 0.234375 3.945312 0.128906 3.4375 -0.078125 C 2.9375 -0.296875 2.53125 -0.597656 2.21875 -0.984375 C 1.914062 -1.367188 1.695312 -1.832031 1.5625 -2.375 C 1.425781 -2.914062 1.359375 -3.515625 1.359375 -4.171875 Z M 1.359375 -14.625 "/></g></g></g><g fill="#7f2549" fill-opacity="1"><g transform="translate(89.598718, 22.75263)"><g><path d="M 6.703125 -7.0625 C 6.703125 -7.59375 6.523438 -8.019531 6.171875 -8.34375 C 5.828125 -8.675781 5.390625 -8.84375 4.859375 -8.84375 C 4.441406 -8.84375 4.066406 -8.742188 3.734375 -8.546875 C 3.410156 -8.347656 3.160156 -8.054688 2.984375 -7.671875 C 2.890625 -7.453125 2.84375 -7.25 2.84375 -7.0625 Z M 8.375 -0.109375 C 7.945312 -0.00390625 7.53125 0.078125 7.125 0.140625 C 6.71875 0.203125 6.296875 0.234375 5.859375 0.234375 C 4.953125 0.234375 4.179688 0.0859375 3.546875 -0.203125 C 2.921875 -0.492188 2.40625 -0.894531 2 -1.40625 C 1.601562 -1.925781 1.3125 -2.535156 1.125 -3.234375 C 0.9375 -3.929688 0.84375 -4.695312 0.84375 -5.53125 C 0.84375 -6.226562 0.921875 -6.867188 1.078125 -7.453125 C 1.234375 -8.035156 1.476562 -8.539062 1.8125 -8.96875 C 2.144531 -9.394531 2.570312 -9.726562 3.09375 -9.96875 C 3.613281 -10.207031 4.238281 -10.328125 4.96875 -10.328125 C 5.570312 -10.328125 6.101562 -10.222656 6.5625 -10.015625 C 7.019531 -9.816406 7.398438 -9.535156 7.703125 -9.171875 C 8.003906 -8.804688 8.226562 -8.375 8.375 -7.875 C 8.53125 -7.382812 8.609375 -6.851562 8.609375 -6.28125 L 8.609375 -5.78125 L 2.75 -5.78125 C 2.75 -5.21875 2.820312 -4.664062 2.96875 -4.125 C 3.125 -3.582031 3.351562 -3.097656 3.65625 -2.671875 C 3.957031 -2.242188 4.34375 -1.898438 4.8125 -1.640625 C 5.28125 -1.378906 5.832031 -1.25 6.46875 -1.25 C 6.800781 -1.25 7.125 -1.28125 7.4375 -1.34375 C 7.75 -1.40625 8.0625 -1.492188 8.375 -1.609375 Z M 8.375 -0.109375 "/></g></g></g><g fill="#7f2549" fill-opacity="1"><g transform="translate(99.014631, 22.75263)"><g><path d="M 6.421875 -4.515625 L 6.046875 -4.515625 C 5.742188 -4.515625 5.414062 -4.476562 5.0625 -4.40625 C 4.707031 -4.332031 4.378906 -4.21875 4.078125 -4.0625 C 3.785156 -3.914062 3.535156 -3.710938 3.328125 -3.453125 C 3.128906 -3.203125 3.03125 -2.898438 3.03125 -2.546875 C 3.03125 -2.234375 3.125 -1.9375 3.3125 -1.65625 C 3.507812 -1.382812 3.785156 -1.25 4.140625 -1.25 C 4.460938 -1.25 4.765625 -1.332031 5.046875 -1.5 C 5.328125 -1.675781 5.566406 -1.894531 5.765625 -2.15625 C 5.972656 -2.414062 6.132812 -2.703125 6.25 -3.015625 C 6.363281 -3.335938 6.421875 -3.644531 6.421875 -3.9375 Z M 6.421875 0 L 6.421875 -1.25 L 6.375 -1.25 C 6.15625 -0.769531 5.796875 -0.398438 5.296875 -0.140625 C 4.804688 0.109375 4.300781 0.234375 3.78125 0.234375 C 2.925781 0.234375 2.234375 0 1.703125 -0.46875 C 1.171875 -0.9375 0.90625 -1.609375 0.90625 -2.484375 C 0.90625 -3.191406 1.085938 -3.765625 1.453125 -4.203125 C 1.828125 -4.640625 2.289062 -4.972656 2.84375 -5.203125 C 3.394531 -5.441406 3.988281 -5.597656 4.625 -5.671875 C 5.269531 -5.742188 5.867188 -5.78125 6.421875 -5.78125 L 6.421875 -7.34375 C 6.421875 -7.863281 6.269531 -8.242188 5.96875 -8.484375 C 5.664062 -8.722656 5.300781 -8.84375 4.875 -8.84375 C 4.382812 -8.84375 3.992188 -8.707031 3.703125 -8.4375 C 3.410156 -8.164062 3.265625 -7.785156 3.265625 -7.296875 L 1.25 -7.296875 C 1.25 -7.859375 1.347656 -8.328125 1.546875 -8.703125 C 1.753906 -9.085938 2.03125 -9.398438 2.375 -9.640625 C 2.726562 -9.890625 3.128906 -10.066406 3.578125 -10.171875 C 4.035156 -10.273438 4.519531 -10.328125 5.03125 -10.328125 C 7.226562 -10.328125 8.328125 -9.242188 8.328125 -7.078125 L 8.328125 0 Z M 6.421875 0 "/></g></g></g><g fill="#7f2549" fill-opacity="1"><g transform="translate(108.833491, 22.75263)"><g><path d="M 7.421875 0 L 7.421875 -2.15625 L 7.375 -2.15625 C 7.125 -1.4375 6.726562 -0.859375 6.1875 -0.421875 C 5.65625 0.015625 4.984375 0.234375 4.171875 0.234375 C 3.660156 0.234375 3.234375 0.144531 2.890625 -0.03125 C 2.546875 -0.21875 2.265625 -0.460938 2.046875 -0.765625 C 1.835938 -1.078125 1.6875 -1.429688 1.59375 -1.828125 C 1.507812 -2.234375 1.46875 -2.65625 1.46875 -3.09375 L 1.46875 -10.09375 L 3.375 -10.09375 L 3.375 -4.578125 C 3.375 -4.367188 3.375 -4.160156 3.375 -3.953125 C 3.375 -3.742188 3.378906 -3.535156 3.390625 -3.328125 C 3.421875 -2.847656 3.519531 -2.453125 3.6875 -2.140625 C 3.851562 -1.828125 4.207031 -1.671875 4.75 -1.671875 C 5.21875 -1.671875 5.617188 -1.816406 5.953125 -2.109375 C 6.296875 -2.398438 6.570312 -2.753906 6.78125 -3.171875 C 7 -3.597656 7.160156 -4.050781 7.265625 -4.53125 C 7.367188 -5.019531 7.421875 -5.445312 7.421875 -5.8125 L 7.421875 -10.09375 L 9.328125 -10.09375 L 9.328125 0 Z M 7.421875 0 "/></g></g></g><g fill="#7f2549" fill-opacity="1"><g transform="translate(119.839931, 22.75263)"><g><path d="M 6.9375 0.078125 C 6.695312 0.140625 6.445312 0.179688 6.1875 0.203125 C 5.9375 0.222656 5.679688 0.234375 5.421875 0.234375 C 4.972656 0.234375 4.5625 0.191406 4.1875 0.109375 C 3.820312 0.0351562 3.503906 -0.0859375 3.234375 -0.265625 C 2.972656 -0.453125 2.765625 -0.703125 2.609375 -1.015625 C 2.460938 -1.335938 2.390625 -1.738281 2.390625 -2.21875 L 2.390625 -8.609375 L 0.59375 -8.609375 L 0.59375 -10.09375 L 2.390625 -10.09375 L 2.390625 -12.46875 L 4.296875 -13.65625 L 4.296875 -10.09375 L 7.109375 -10.09375 L 7.109375 -8.609375 L 4.296875 -8.609375 L 4.296875 -3.21875 C 4.296875 -2.65625 4.398438 -2.1875 4.609375 -1.8125 C 4.816406 -1.4375 5.253906 -1.25 5.921875 -1.25 C 6.085938 -1.25 6.257812 -1.257812 6.4375 -1.28125 C 6.613281 -1.300781 6.78125 -1.34375 6.9375 -1.40625 Z M 6.9375 0.078125 "/></g></g></g><g fill="#7f2549" fill-opacity="1"><g transform="translate(127.304804, 22.75263)"><g><path d="M 2.484375 4.34375 L 3.90625 0.0625 L 0.0625 -10.09375 L 2.1875 -10.09375 L 4.828125 -2.796875 L 4.875 -2.796875 L 7.25 -10.09375 L 9.375 -10.09375 L 4.34375 4.34375 Z M 2.484375 4.34375 "/></g></g></g><g clip-path="url(#6710e6df04)"><path fill="#7f2549" d="M 33.675781 14.980469 C 32.617188 9.832031 28.414062 6.128906 23.480469 5.46875 C 21.914062 6.609375 21.527344 8.796875 22.304688 9.78125 C 23.734375 11.589844 26.667969 12.296875 28.578125 15.074219 C 31.101562 18.742188 29.183594 23.472656 27.652344 25.132812 C 28.191406 22.59375 27.539062 20.15625 25.910156 18.609375 C 25.105469 17.84375 24.316406 17.21875 23.554688 16.613281 C 21.265625 14.792969 19.699219 13.375 19.667969 10.148438 C 19.652344 8.488281 20.382812 6.648438 21.625 5.363281 C 20.90625 5.378906 20.183594 5.460938 19.453125 5.609375 C 12.9375 6.949219 8.742188 13.316406 10.082031 19.832031 C 10.914062 23.878906 13.6875 27.03125 17.234375 28.519531 C 20.699219 29.660156 23.335938 27.957031 23.515625 25.574219 C 23.625 23.144531 21.964844 22.957031 20.734375 23.136719 C 19.503906 23.320312 18.570312 24.015625 17.867188 23.726562 C 17.160156 23.441406 17.523438 22.503906 17.402344 22.328125 C 17.148438 21.953125 16.617188 22.078125 16.589844 21.726562 C 16.582031 21.480469 17.027344 21.230469 17.027344 21.230469 C 16.097656 20.980469 16.355469 20.65625 16.464844 20.441406 C 16.578125 20.230469 16.605469 19.847656 16.605469 19.847656 C 16.605469 19.847656 16.285156 19.820312 15.769531 19.597656 C 15.359375 19.414062 15.695312 18.988281 15.886719 18.699219 C 16.078125 18.40625 16.757812 17.230469 16.757812 17.230469 C 16.007812 17.246094 15.917969 16.679688 15.917969 16.679688 C 16.160156 16.964844 16.652344 16.820312 16.652344 16.820312 C 15.46875 14.660156 16.75 11.9375 18.410156 10.386719 C 18.410156 15.410156 21.792969 16.480469 24.992188 19.519531 C 27.507812 21.910156 26.898438 26.949219 23.4375 29.347656 C 23.726562 29.308594 24.011719 29.261719 24.300781 29.203125 C 30.816406 27.863281 35.015625 21.496094 33.675781 14.980469 Z M 33.675781 14.980469 " fill-opacity="1" fill-rule="nonzero"/></g></svg>